<svg data-v-423bf9ae="" xmlns="http://www.w3.org/2000/svg" viewBox="0 0 587 90" class="iconLeftSlogan"><!----><!----><!----><g data-v-423bf9ae="" id="43b0aa61-bf4d-4afb-b913-724551e0e89d" fill="#0C3507" transform="matrix(4.434590200540881,0,0,4.434590200540881,111.04423655529962,-12.993349822044195)"><path d="M5.67 11.89L2.59 3.63L1.34 3.63L0.81 13.43L2.03 13.43L2.31 7.84C2.32 7.52 2.34 7.14 2.34 6.78C2.34 6.41 2.32 6.05 2.32 5.74C2.52 6.38 2.83 7.25 3.01 7.73L5.11 13.43L6.22 13.43L8.33 7.74C8.48 7.32 8.82 6.38 9.03 5.74C9.02 6.10 9.00 6.58 9.00 7.03C9.00 7.32 9.02 7.60 9.03 7.84L9.31 13.43L10.51 13.43L10.00 3.63L8.74 3.63ZM14.94 6.61C12.99 6.61 11.83 7.74 11.83 9.95C11.83 12.33 13.24 13.57 15.48 13.57C16.24 13.57 17.07 13.44 17.70 13.19L17.70 12.15C16.91 12.40 16.04 12.52 15.46 12.52C14.04 12.52 13.22 11.84 13.06 10.40L17.81 10.40L17.81 9.83C17.81 7.71 16.77 6.61 14.94 6.61ZM14.92 7.56C16.02 7.56 16.56 8.40 16.56 9.53L13.05 9.53C13.16 8.18 13.89 7.56 14.92 7.56ZM20.22 8.33C20.22 7.83 20.57 7.60 21.42 7.60C21.92 7.60 22.67 7.69 23.02 7.84L23.02 6.85C22.71 6.72 22.05 6.61 21.35 6.61C19.66 6.61 18.98 7.24 18.98 8.27C18.98 9.31 19.59 9.76 20.82 10.46C21.84 11.06 22.08 11.37 22.08 11.76C22.08 12.36 21.46 12.59 20.68 12.59C20.10 12.59 19.54 12.50 18.90 12.29L18.90 13.29C19.36 13.45 20.13 13.57 20.86 13.57C22.09 13.57 23.31 13.20 23.31 11.75C23.31 10.60 22.64 10.18 21.66 9.60C20.58 8.96 20.22 8.75 20.22 8.33ZM25.63 8.33C25.63 7.83 25.98 7.60 26.84 7.60C27.34 7.60 28.08 7.69 28.43 7.84L28.43 6.85C28.13 6.72 27.47 6.61 26.77 6.61C25.07 6.61 24.40 7.24 24.40 8.27C24.40 9.31 25.00 9.76 26.24 10.46C27.26 11.06 27.50 11.37 27.50 11.76C27.50 12.36 26.88 12.59 26.10 12.59C25.52 12.59 24.96 12.50 24.32 12.29L24.32 13.29C24.78 13.45 25.55 13.57 26.28 13.57C27.51 13.57 28.73 13.20 28.73 11.75C28.73 10.60 28.06 10.18 27.08 9.60C26.00 8.96 25.63 8.75 25.63 8.33ZM36.04 13.43C35.91 12.78 35.88 11.63 35.88 10.57L35.88 7.22L35.87 7.22L35.87 7.03C35.15 6.75 34.05 6.61 33.26 6.61C31.00 6.61 29.78 7.94 29.78 10.42C29.78 12.70 30.86 13.57 32.31 13.57C33.39 13.57 34.17 13.08 34.65 11.89C34.68 12.38 34.73 12.87 34.83 13.43ZM32.58 12.52C31.65 12.52 31.07 11.93 31.07 10.35C31.07 8.50 31.86 7.59 33.31 7.59C33.70 7.59 34.15 7.64 34.61 7.73L34.61 7.88C34.55 11.83 33.53 12.52 32.58 12.52ZM39.63 15.46C38.89 15.46 38.12 15.37 37.56 15.20L37.56 16.20C38.11 16.37 38.95 16.46 39.68 16.46C42.10 16.46 43.47 15.41 43.47 12.64L43.47 7.03C42.77 6.75 41.65 6.61 40.88 6.61C38.60 6.61 37.38 7.94 37.38 10.42C37.38 12.70 38.47 13.57 39.91 13.57C40.96 13.57 41.73 13.10 42.21 12.00L42.21 12.63C42.21 14.80 41.20 15.46 39.63 15.46ZM40.18 12.52C39.27 12.52 38.67 11.93 38.67 10.35C38.67 8.50 39.48 7.59 40.92 7.59C41.31 7.59 41.75 7.64 42.21 7.73L42.21 7.88C42.15 11.83 41.13 12.52 40.18 12.52ZM48.05 6.61C46.10 6.61 44.94 7.74 44.94 9.95C44.94 12.33 46.35 13.57 48.59 13.57C49.35 13.57 50.18 13.44 50.81 13.19L50.81 12.15C50.02 12.40 49.15 12.52 48.57 12.52C47.15 12.52 46.33 11.84 46.17 10.40L50.92 10.40L50.92 9.83C50.92 7.71 49.88 6.61 48.05 6.61ZM48.03 7.56C49.13 7.56 49.67 8.40 49.67 9.53L46.16 9.53C46.27 8.18 47.00 7.56 48.03 7.56ZM57.61 3.63L54.50 13.43L55.83 13.43L56.60 10.86L60.27 10.86L61.08 13.43L62.41 13.43L59.16 3.63ZM58.06 6.09C58.18 5.66 58.28 5.19 58.39 4.77C58.51 5.19 58.60 5.64 58.74 6.08L59.93 9.81L56.92 9.81ZM64.75 13.43L64.75 12.82C64.78 10.15 65.51 7.66 67.09 7.66C67.76 7.66 68.05 8.13 68.05 9.31L68.05 13.43L69.30 13.43L69.30 8.90C69.30 7.46 68.80 6.61 67.49 6.61C66.11 6.61 65.23 7.41 64.72 8.85L64.69 6.75L63.48 6.75L63.48 13.43ZM77.03 13.43C76.90 12.78 76.87 11.63 76.87 10.57L76.87 7.22L76.86 7.22L76.86 7.03C76.15 6.75 75.04 6.61 74.26 6.61C71.99 6.61 70.77 7.94 70.77 10.42C70.77 12.70 71.85 13.57 73.30 13.57C74.38 13.57 75.17 13.08 75.64 11.89C75.67 12.38 75.73 12.87 75.82 13.43ZM73.57 12.52C72.65 12.52 72.06 11.93 72.06 10.35C72.06 8.50 72.86 7.59 74.30 7.59C74.69 7.59 75.14 7.64 75.60 7.73L75.60 7.88C75.54 11.83 74.52 12.52 73.57 12.52ZM78.69 2.93L78.69 11.56C78.69 12.85 79.17 13.47 80.51 13.47C80.67 13.47 80.81 13.45 80.96 13.44L80.96 12.43C80.82 12.46 80.72 12.46 80.60 12.46C80.12 12.46 79.97 12.14 79.97 11.54L79.97 2.93ZM84.08 15.46C83.34 15.46 82.57 15.37 82.01 15.20L82.01 16.20C82.56 16.37 83.40 16.46 84.13 16.46C86.55 16.46 87.93 15.41 87.93 12.64L87.93 7.42L87.92 7.42L87.92 6.75L86.63 6.75L86.63 8.57C86.53 10.35 86.00 12.50 84.46 12.50C83.72 12.50 83.36 12.08 83.36 11.02L83.36 6.75L82.10 6.75L82.10 11.27C82.10 12.71 82.66 13.55 84.11 13.55C85.40 13.55 86.20 12.94 86.66 11.84L86.66 12.63C86.66 14.80 85.65 15.46 84.08 15.46ZM94.54 6.75L89.40 6.75L89.40 7.73L93.04 7.73L89.25 12.52L89.25 13.43L94.85 13.43L94.85 12.45L90.66 12.45L94.54 7.66ZM98.69 6.61C96.74 6.61 95.58 7.74 95.58 9.95C95.58 12.33 96.99 13.57 99.23 13.57C99.99 13.57 100.81 13.44 101.44 13.19L101.44 12.15C100.66 12.40 99.79 12.52 99.20 12.52C97.79 12.52 96.96 11.84 96.81 10.40L101.56 10.40L101.56 9.83C101.56 7.71 100.52 6.61 98.69 6.61ZM98.67 7.56C99.76 7.56 100.31 8.40 100.31 9.53L96.80 9.53C96.91 8.18 97.64 7.56 98.67 7.56ZM104.31 13.43L104.31 13.02C104.31 9.24 105.46 7.77 106.75 7.77C106.96 7.77 107.14 7.78 107.30 7.83L107.30 6.66C107.11 6.62 106.96 6.61 106.71 6.61C105.49 6.61 104.72 7.62 104.29 9.09L104.26 6.75L103.04 6.75L103.04 13.43Z"></path></g><defs data-v-423bf9ae=""><linearGradient data-v-423bf9ae="" gradientTransform="rotate(25)" id="b3db2864-aa97-489f-83d7-8cca30a7390d" x1="0%" y1="0%" x2="100%" y2="0%"><stop data-v-423bf9ae="" offset="0%" style="stop-color: rgb(90, 90, 45); stop-opacity: 1;"></stop><stop data-v-423bf9ae="" offset="100%" style="stop-color: rgb(13, 227, 13); stop-opacity: 1;"></stop></linearGradient></defs><g data-v-423bf9ae="" id="d7367725-b212-4b9c-9b86-5bf76f62edc7" transform="matrix(1.0773153254746213,0,0,1.0773153254746213,-5.758902930574067,-8.636227820409083)" stroke="none" fill="url(#b3db2864-aa97-489f-83d7-8cca30a7390d)"><path d="M92.551 66.975a1.996 1.996 0 0 0-2.774.546c-6.47 9.639-16.24 15.22-26.863 15.391v-8.313a.5.5 0 0 0-1 0v8.315C44.018 82.621 29.396 66.73 28.13 46.697h7.126a.5.5 0 0 0 0-1h-7.185c-.025-.604-.446-10.322 2.379-16.376 7.745-6.877 18.287-12.969 31.463-13.316V18.7a.5.5 0 0 0 1 0v-2.715c8.644-.006 17.977 2.38 27.822 7.197a2.002 2.002 0 0 0 1.758-3.594c-10.397-5.085-20.312-7.63-29.58-7.604V8.729a.5.5 0 0 0-1 0v3.272C30.125 13 15.518 39.771 11.947 45.697H7.701a.5.5 0 0 0 0 1h3.653c-3.742 6.404-5.653 11.585-5.653 13.151 0 3.847 14.191 12.708 19.163 15.509 7.763 4.374 22.82 11.664 37.049 11.832v4.081a.5.5 0 0 0 1 0v-4.075c8.907-.052 18.506-1.497 28.549-4.314a2.001 2.001 0 0 0-1.08-3.852 123.438 123.438 0 0 1-8.668 2.105c4.357-2.846 8.228-6.684 11.383-11.386a1.997 1.997 0 0 0-.546-2.773zM24.684 35.08c-.454 2.621-.628 10.012-.606 10.617h-7.433c1.826-2.853 7.561-10.083 8.039-10.617zM9.754 59.589c.348-1.484 2.327-6.554 6.26-12.892h8.105c.728 12.56 6.275 23.671 14.588 31.015-14.625-6.059-27.061-15.324-28.953-18.123zm63.221-11.42V36.98a1 1 0 0 0-1-1H52.852a1 1 0 0 0-1 1v11.188l-4.434 3.812a.998.998 0 0 0-.348.758v2.676a1 1 0 0 0 1 1h28.686a1 1 0 0 0 1-1v-2.676a1 1 0 0 0-.348-.758l-4.433-3.811zm-2-10.189v10.455H53.852V37.98h17.123zM53.446 49.436H71.38l3.26 2.803H50.186l3.26-2.803zm-4.376 4.978v-1.176h26.686v1.176H49.07zm-8.071-13.389a.75.75 0 0 1-.75-.75V24.784a.75.75 0 0 1 .75-.75H56.49a.75.75 0 0 1 0 1.5H41.749v14.741a.75.75 0 0 1-.75.75zm.75 11.095v14.741H56.49a.75.75 0 0 1 0 1.5H40.999a.75.75 0 0 1-.75-.75V52.12a.75.75 0 0 1 1.5 0zm41.328-11.845V25.534H68.336a.75.75 0 0 1 0-1.5h15.491a.75.75 0 0 1 .75.75v15.491a.75.75 0 0 1-1.5 0zm.75 11.095a.75.75 0 0 1 .75.75v15.491a.75.75 0 0 1-.75.75H68.336a.75.75 0 0 1 0-1.5h14.741V52.12a.75.75 0 0 1 .75-.75zm3.097-5.173a.5.5 0 0 0-.5-.5h-2.097V43.6a.5.5 0 0 0-1 0v2.097h-.671c-.265-10.776-8.967-19.478-19.743-19.742v-.671h2.097a.5.5 0 0 0 0-1h-2.097v-2.098a.5.5 0 0 0-1 0v2.098h-2.097a.5.5 0 0 0 0 1h2.097v.671c-10.776.265-19.478 8.967-19.743 19.742h-.671v-2.114a.5.5 0 0 0-1 0v2.114h-2.114a.5.5 0 0 0 0 1h2.114v2.115a.5.5 0 0 0 1 0v-2.115h.671c.265 10.776 8.967 19.478 19.743 19.743v.671h-2.114a.5.5 0 0 0 0 1h2.114v2.115a.5.5 0 0 0 1 0v-2.115h2.115a.5.5 0 0 0 0-1h-2.115v-.671c10.776-.265 19.479-8.967 19.743-19.743h.671v2.098a.5.5 0 0 0 1 0v-2.098h2.097a.5.5 0 0 0 .5-.5zM62.913 65.44v-.443a.5.5 0 0 0-1 0v.443c-10.225-.264-18.479-8.518-18.743-18.743h.444a.5.5 0 0 0 0-1h-.444c.264-10.224 8.518-18.478 18.743-18.742v.426a.5.5 0 0 0 1 0v-.426c10.225.264 18.479 8.518 18.743 18.742h-.427a.5.5 0 0 0 0 1h.427c-.264 10.225-8.518 18.479-18.743 18.743zm29.386-19.743a.5.5 0 0 1 0 1h-2.826a.5.5 0 0 1 0-1h2.826z"></path></g><!----><g data-v-423bf9ae="" id="3add9f6f-7310-490f-a1fb-fc5b5f226af3" fill="#0C3507" transform="matrix(1.0149686384757632,0,0,1.0149686384757632,114.32161458244593,54.41767436476541)"><path d="M1.15 6.34L0.31 6.15L0.36 5.89L3.05 5.89L3.03 6.11L1.90 6.32L3.86 13.18L5.90 6.18L6.21 6.14L8.15 13.18L10.36 6.36L9.08 6.13L9.12 5.89L11.74 5.89L11.72 6.14L10.91 6.34L8.22 14.49L7.77 14.57L5.94 7.63L3.92 14.49L3.44 14.57L1.15 6.34ZM20.66 6.36L19.43 6.18L19.48 5.89L25.68 5.89L25.46 8.07L25.15 8.03L25.02 6.24L21.37 6.24L21.37 9.89L23.66 9.89L23.91 8.94L24.28 8.89L24.06 11.55L23.71 11.61L23.60 10.26L21.37 10.26L21.37 14.03L25.21 14.03L25.72 12.19L26.00 12.26L25.79 14.40L19.46 14.40L19.50 14.11L20.66 13.90L20.66 6.36ZM45.51 6.19L45.51 14.03L46.74 14.03L46.74 14.03Q48.55 14.03 49.65 12.95L49.65 12.95L49.65 12.95Q50.74 11.87 50.74 10.12L50.74 10.12L50.74 10.12Q50.74 8.20 49.69 7.18L49.69 7.18L49.69 7.18Q48.64 6.16 46.70 6.16L46.70 6.16L46.70 6.16Q45.71 6.16 45.51 6.19L45.51 6.19ZM46.56 14.40L43.61 14.40L43.67 14.11L44.82 13.90L44.82 6.51L43.65 6.36L43.72 6.12L43.72 6.12Q45.80 5.79 46.96 5.79L46.96 5.79L46.96 5.79Q47.92 5.79 48.70 6.03L48.70 6.03L48.70 6.03Q49.47 6.26 49.98 6.66L49.98 6.66L49.98 6.66Q50.50 7.05 50.84 7.59L50.84 7.59L50.84 7.59Q51.18 8.13 51.33 8.71L51.33 8.71L51.33 8.71Q51.48 9.29 51.48 9.92L51.48 9.92L51.48 9.92Q51.48 10.64 51.31 11.28L51.31 11.28L51.31 11.28Q51.14 11.93 50.76 12.50L50.76 12.50L50.76 12.50Q50.37 13.08 49.81 13.49L49.81 13.49L49.81 13.49Q49.25 13.91 48.42 14.15L48.42 14.15L48.42 14.15Q47.58 14.40 46.56 14.40L46.56 14.40ZM59.98 9.75L59.98 9.75L59.98 9.75Q59.98 11.03 60.34 12.01L60.34 12.01L60.34 12.01Q60.70 13.00 61.42 13.57L61.42 13.57L61.42 13.57Q62.14 14.14 63.12 14.14L63.12 14.14L63.12 14.14Q63.69 14.14 64.18 13.92L64.18 13.92L64.18 13.92Q64.67 13.70 65.02 13.33L65.02 13.33L65.02 13.33Q65.37 12.96 65.61 12.49L65.61 12.49L65.61 12.49Q65.85 12.01 65.97 11.50L65.97 11.50L65.97 11.50Q66.08 10.99 66.08 10.48L66.08 10.48L66.08 10.48Q66.08 8.50 65.23 7.29L65.23 7.29L65.23 7.29Q64.38 6.07 62.93 6.07L62.93 6.07L62.93 6.07Q62.35 6.07 61.86 6.28L61.86 6.28L61.86 6.28Q61.37 6.49 61.02 6.85L61.02 6.85L61.02 6.85Q60.68 7.21 60.44 7.69L60.44 7.69L60.44 7.69Q60.20 8.16 60.09 8.69L60.09 8.69L60.09 8.69Q59.98 9.21 59.98 9.75ZM59.23 10.16L59.23 10.16L59.23 10.16Q59.23 8.16 60.32 6.92L60.32 6.92L60.32 6.92Q61.42 5.69 63.26 5.69L63.26 5.69L63.26 5.69Q64.39 5.69 65.21 6.27L65.21 6.27L65.21 6.27Q66.03 6.86 66.42 7.84L66.42 7.84L66.42 7.84Q66.82 8.83 66.82 10.11L66.82 10.11L66.82 10.11Q66.82 10.75 66.67 11.38L66.67 11.38L66.67 11.38Q66.52 12.00 66.20 12.58L66.20 12.58L66.20 12.58Q65.87 13.17 65.41 13.61L65.41 13.61L65.41 13.61Q64.95 14.05 64.27 14.32L64.27 14.32L64.27 14.32Q63.59 14.58 62.79 14.58L62.79 14.58L62.79 14.58Q61.74 14.58 60.91 13.98L60.91 13.98L60.91 13.98Q60.09 13.37 59.66 12.37L59.66 12.37L59.66 12.37Q59.23 11.37 59.23 10.16ZM75.79 6.36L74.53 6.14L74.58 5.89L76.65 5.89L81.38 13.17L81.38 6.33L80.12 6.16L80.17 5.89L83.06 5.89L83.01 6.16L81.87 6.32L81.87 14.44L81.50 14.52L76.30 6.65L76.30 13.95L77.55 14.08L77.49 14.40L74.61 14.40L74.65 14.11L75.79 13.90L75.79 6.36ZM90.97 8.31L90.82 5.50L91.57 5.54L91.32 8.28L90.97 8.31ZM99.38 8.09L99.31 5.89L106.37 5.89L106.13 8.16L105.79 8.12L105.68 6.24L103.14 6.24L103.14 13.90L104.35 14.08L104.28 14.40L101.18 14.40L101.21 14.11L102.41 13.90L102.41 6.24L99.98 6.24L99.74 8.15L99.38 8.09ZM124.02 10.27L124.02 10.27L124.02 10.27Q124.02 9.64 124.20 9.00L124.20 9.00L124.20 9.00Q124.37 8.36 124.71 7.78L124.71 7.78L124.71 7.78Q125.06 7.21 125.54 6.75L125.54 6.75L125.54 6.75Q126.02 6.30 126.69 6.04L126.69 6.04L126.69 6.04Q127.35 5.77 128.11 5.77L128.11 5.77L128.11 5.77Q128.85 5.77 129.55 5.94L129.55 5.94L129.55 5.94Q130.26 6.11 130.73 6.47L130.73 6.47L130.53 8.64L130.22 8.61L130.01 6.99L130.01 6.99Q129.74 6.65 129.19 6.41L129.19 6.41L129.19 6.41Q128.65 6.17 127.89 6.17L127.89 6.17L127.89 6.17Q126.48 6.17 125.64 7.27L125.64 7.27L125.64 7.27Q124.80 8.37 124.80 10.07L124.80 10.07L124.80 10.07Q124.80 10.69 124.91 11.25L124.91 11.25L124.91 11.25Q125.02 11.81 125.28 12.34L125.28 12.34L125.28 12.34Q125.53 12.87 125.91 13.25L125.91 13.25L125.91 13.25Q126.29 13.63 126.88 13.86L126.88 13.86L126.88 13.86Q127.46 14.09 128.19 14.09L128.19 14.09L128.19 14.09Q129.25 14.09 129.97 13.59L129.97 13.59L129.99 11.03L128.34 10.86L128.38 10.60L131.66 10.60L131.61 10.86L130.70 11.01L130.70 13.86L130.70 13.86Q130.05 14.25 129.31 14.39L129.31 14.39L129.31 14.39Q128.57 14.53 127.48 14.53L127.48 14.53L127.48 14.53Q126.78 14.53 126.15 14.23L126.15 14.23L126.15 14.23Q125.51 13.93 125.05 13.39L125.05 13.39L125.05 13.39Q124.58 12.85 124.30 12.04L124.30 12.04L124.30 12.04Q124.02 11.23 124.02 10.27ZM140.55 6.36L139.33 6.18L139.38 5.89L145.57 5.89L145.36 8.07L145.04 8.03L144.92 6.24L141.26 6.24L141.26 9.89L143.55 9.89L143.81 8.94L144.18 8.89L143.95 11.55L143.60 11.61L143.49 10.26L141.26 10.26L141.26 14.03L145.11 14.03L145.61 12.19L145.89 12.26L145.69 14.40L139.35 14.40L139.39 14.11L140.55 13.90L140.55 6.36ZM153.67 8.09L153.60 5.89L160.66 5.89L160.42 8.16L160.08 8.12L159.96 6.24L157.42 6.24L157.42 13.90L158.63 14.08L158.56 14.40L155.46 14.40L155.50 14.11L156.69 13.90L156.69 6.24L154.26 6.24L154.02 8.15L153.67 8.09ZM178.31 10.27L178.31 10.27L178.31 10.27Q178.31 9.64 178.48 9.00L178.48 9.00L178.48 9.00Q178.65 8.36 179.00 7.78L179.00 7.78L179.00 7.78Q179.35 7.21 179.83 6.75L179.83 6.75L179.83 6.75Q180.30 6.30 180.97 6.04L180.97 6.04L180.97 6.04Q181.64 5.77 182.40 5.77L182.40 5.77L182.40 5.77Q183.13 5.77 183.84 5.94L183.84 5.94L183.84 5.94Q184.54 6.11 185.01 6.47L185.01 6.47L184.81 8.64L184.50 8.61L184.29 6.99L184.29 6.99Q184.02 6.65 183.48 6.41L183.48 6.41L183.48 6.41Q182.93 6.17 182.17 6.17L182.17 6.17L182.17 6.17Q180.76 6.17 179.93 7.27L179.93 7.27L179.93 7.27Q179.09 8.37 179.09 10.07L179.09 10.07L179.09 10.07Q179.09 10.69 179.20 11.25L179.20 11.25L179.20 11.25Q179.31 11.81 179.56 12.34L179.56 12.34L179.56 12.34Q179.81 12.87 180.19 13.25L180.19 13.25L180.19 13.25Q180.57 13.63 181.16 13.86L181.16 13.86L181.16 13.86Q181.75 14.09 182.48 14.09L182.48 14.09L182.48 14.09Q183.54 14.09 184.26 13.59L184.26 13.59L184.27 11.03L182.62 10.86L182.66 10.60L185.94 10.60L185.90 10.86L184.98 11.01L184.98 13.86L184.98 13.86Q184.33 14.25 183.59 14.39L183.59 14.39L183.59 14.39Q182.85 14.53 181.77 14.53L181.77 14.53L181.77 14.53Q181.06 14.53 180.43 14.23L180.43 14.23L180.43 14.23Q179.80 13.93 179.33 13.39L179.33 13.39L179.33 13.39Q178.86 12.85 178.59 12.04L178.59 12.04L178.59 12.04Q178.31 11.23 178.31 10.27ZM194.39 9.75L194.39 9.75L194.39 9.75Q194.39 11.03 194.76 12.01L194.76 12.01L194.76 12.01Q195.12 13.00 195.84 13.57L195.84 13.57L195.84 13.57Q196.55 14.14 197.53 14.14L197.53 14.14L197.53 14.14Q198.11 14.14 198.60 13.92L198.60 13.92L198.60 13.92Q199.09 13.70 199.44 13.33L199.44 13.33L199.44 13.33Q199.78 12.96 200.02 12.49L200.02 12.49L200.02 12.49Q200.27 12.01 200.38 11.50L200.38 11.50L200.38 11.50Q200.50 10.99 200.50 10.48L200.50 10.48L200.50 10.48Q200.50 8.50 199.65 7.29L199.65 7.29L199.65 7.29Q198.80 6.07 197.35 6.07L197.35 6.07L197.35 6.07Q196.77 6.07 196.27 6.28L196.27 6.28L196.27 6.28Q195.78 6.49 195.44 6.85L195.44 6.85L195.44 6.85Q195.10 7.21 194.86 7.69L194.86 7.69L194.86 7.69Q194.62 8.16 194.51 8.69L194.51 8.69L194.51 8.69Q194.39 9.21 194.39 9.75ZM193.64 10.16L193.64 10.16L193.64 10.16Q193.64 8.16 194.74 6.92L194.74 6.92L194.74 6.92Q195.84 5.69 197.67 5.69L197.67 5.69L197.67 5.69Q198.81 5.69 199.63 6.27L199.63 6.27L199.63 6.27Q200.44 6.86 200.84 7.84L200.84 7.84L200.84 7.84Q201.24 8.83 201.24 10.11L201.24 10.11L201.24 10.11Q201.24 10.75 201.09 11.38L201.09 11.38L201.09 11.38Q200.94 12.00 200.61 12.58L200.61 12.58L200.61 12.58Q200.29 13.17 199.82 13.61L199.82 13.61L199.82 13.61Q199.36 14.05 198.69 14.32L198.69 14.32L198.69 14.32Q198.01 14.58 197.20 14.58L197.20 14.58L197.20 14.58Q196.15 14.58 195.33 13.98L195.33 13.98L195.33 13.98Q194.50 13.37 194.07 12.37L194.07 12.37L194.07 12.37Q193.64 11.37 193.64 10.16ZM209.02 8.09L208.95 5.89L216.02 5.89L215.78 8.16L215.43 8.12L215.32 6.24L212.78 6.24L212.78 13.90L213.99 14.08L213.92 14.40L210.82 14.40L210.85 14.11L212.05 13.90L212.05 6.24L209.62 6.24L209.38 8.15L209.02 8.09ZM223.84 16.32L223.75 16.01L223.75 16.01Q224.44 15.74 224.71 15.40L224.71 15.40L224.71 15.40Q224.97 15.06 224.97 14.60L224.97 14.60L224.97 14.60Q224.97 14.16 224.76 13.90L224.76 13.90L224.76 13.90Q224.54 13.63 224.23 13.63L224.23 13.63L224.23 13.63Q224.10 13.63 224.04 13.66L224.04 13.66L224.04 13.66Q224.02 13.60 224.02 13.53L224.02 13.53L224.02 13.53Q224.02 13.25 224.20 13.08L224.20 13.08L224.20 13.08Q224.38 12.91 224.68 12.91L224.68 12.91L224.68 12.91Q225.09 12.91 225.37 13.28L225.37 13.28L225.37 13.28Q225.65 13.66 225.65 14.33L225.65 14.33L225.65 14.33Q225.65 14.59 225.57 14.85L225.57 14.85L225.57 14.85Q225.48 15.11 225.29 15.39L225.29 15.39L225.29 15.39Q225.09 15.67 224.72 15.91L224.72 15.91L224.72 15.91Q224.35 16.15 223.84 16.32L223.84 16.32ZM244.14 6.34L243.30 6.15L243.35 5.89L246.04 5.89L246.02 6.11L244.89 6.32L246.85 13.18L248.89 6.18L249.20 6.14L251.14 13.18L253.35 6.36L252.08 6.13L252.11 5.89L254.73 5.89L254.71 6.14L253.90 6.34L251.21 14.49L250.76 14.57L248.93 7.63L246.91 14.49L246.43 14.57L244.14 6.34ZM263.65 6.36L262.42 6.18L262.47 5.89L268.67 5.89L268.45 8.07L268.14 8.03L268.01 6.24L264.36 6.24L264.36 9.89L266.65 9.89L266.90 8.94L267.27 8.89L267.05 11.55L266.70 11.61L266.59 10.26L264.36 10.26L264.36 14.03L268.20 14.03L268.71 12.19L268.99 12.26L268.78 14.40L262.45 14.40L262.49 14.11L263.65 13.90L263.65 6.36ZM286.64 10.27L286.64 10.27L286.64 10.27Q286.64 9.64 286.81 9.00L286.81 9.00L286.81 9.00Q286.98 8.36 287.33 7.78L287.33 7.78L287.33 7.78Q287.68 7.21 288.16 6.75L288.16 6.75L288.16 6.75Q288.63 6.30 289.30 6.04L289.30 6.04L289.30 6.04Q289.97 5.77 290.73 5.77L290.73 5.77L290.73 5.77Q291.46 5.77 292.17 5.94L292.17 5.94L292.17 5.94Q292.87 6.11 293.34 6.47L293.34 6.47L293.14 8.64L292.83 8.61L292.62 6.99L292.62 6.99Q292.35 6.65 291.81 6.41L291.81 6.41L291.81 6.41Q291.26 6.17 290.50 6.17L290.50 6.17L290.50 6.17Q289.09 6.17 288.25 7.27L288.25 7.27L288.25 7.27Q287.42 8.37 287.42 10.07L287.42 10.07L287.42 10.07Q287.42 10.69 287.53 11.25L287.53 11.25L287.53 11.25Q287.64 11.81 287.89 12.34L287.89 12.34L287.89 12.34Q288.14 12.87 288.52 13.25L288.52 13.25L288.52 13.25Q288.90 13.63 289.49 13.86L289.49 13.86L289.49 13.86Q290.08 14.09 290.81 14.09L290.81 14.09L290.81 14.09Q291.87 14.09 292.58 13.59L292.58 13.59L292.60 11.03L290.95 10.86L290.99 10.60L294.27 10.60L294.23 10.86L293.31 11.01L293.31 13.86L293.31 13.86Q292.66 14.25 291.92 14.39L291.92 14.39L291.92 14.39Q291.18 14.53 290.10 14.53L290.10 14.53L290.10 14.53Q289.39 14.53 288.76 14.23L288.76 14.23L288.76 14.23Q288.13 13.93 287.66 13.39L287.66 13.39L287.66 13.39Q287.19 12.85 286.91 12.04L286.91 12.04L286.91 12.04Q286.64 11.23 286.64 10.27ZM302.72 9.75L302.72 9.75L302.72 9.75Q302.72 11.03 303.08 12.01L303.08 12.01L303.08 12.01Q303.45 13.00 304.17 13.57L304.17 13.57L304.17 13.57Q304.88 14.14 305.86 14.14L305.86 14.14L305.86 14.14Q306.43 14.14 306.93 13.92L306.93 13.92L306.93 13.92Q307.42 13.70 307.76 13.33L307.76 13.33L307.76 13.33Q308.11 12.96 308.35 12.49L308.35 12.49L308.35 12.49Q308.59 12.01 308.71 11.50L308.71 11.50L308.71 11.50Q308.83 10.99 308.83 10.48L308.83 10.48L308.83 10.48Q308.83 8.50 307.98 7.29L307.98 7.29L307.98 7.29Q307.13 6.07 305.68 6.07L305.68 6.07L305.68 6.07Q305.09 6.07 304.60 6.28L304.60 6.28L304.60 6.28Q304.11 6.49 303.77 6.85L303.77 6.85L303.77 6.85Q303.43 7.21 303.19 7.69L303.19 7.69L303.19 7.69Q302.95 8.16 302.84 8.69L302.84 8.69L302.84 8.69Q302.72 9.21 302.72 9.75ZM301.97 10.16L301.97 10.16L301.97 10.16Q301.97 8.16 303.07 6.92L303.07 6.92L303.07 6.92Q304.17 5.69 306.00 5.69L306.00 5.69L306.00 5.69Q307.14 5.69 307.96 6.27L307.96 6.27L307.96 6.27Q308.77 6.86 309.17 7.84L309.17 7.84L309.17 7.84Q309.57 8.83 309.57 10.11L309.57 10.11L309.57 10.11Q309.57 10.75 309.42 11.38L309.42 11.38L309.42 11.38Q309.26 12.00 308.94 12.58L308.94 12.58L308.94 12.58Q308.62 13.17 308.15 13.61L308.15 13.61L308.15 13.61Q307.69 14.05 307.02 14.32L307.02 14.32L307.02 14.32Q306.34 14.58 305.53 14.58L305.53 14.58L305.53 14.58Q304.48 14.58 303.66 13.98L303.66 13.98L303.66 13.98Q302.83 13.37 302.40 12.37L302.40 12.37L302.40 12.37Q301.97 11.37 301.97 10.16ZM327.23 10.27L327.23 10.27L327.23 10.27Q327.23 9.64 327.40 9.00L327.40 9.00L327.40 9.00Q327.57 8.36 327.92 7.78L327.92 7.78L327.92 7.78Q328.27 7.21 328.75 6.75L328.75 6.75L328.75 6.75Q329.23 6.30 329.89 6.04L329.89 6.04L329.89 6.04Q330.56 5.77 331.32 5.77L331.32 5.77L331.32 5.77Q332.06 5.77 332.76 5.94L332.76 5.94L332.76 5.94Q333.46 6.11 333.94 6.47L333.94 6.47L333.73 8.64L333.42 8.61L333.21 6.99L333.21 6.99Q332.94 6.65 332.40 6.41L332.40 6.41L332.40 6.41Q331.85 6.17 331.09 6.17L331.09 6.17L331.09 6.17Q329.68 6.17 328.85 7.27L328.85 7.27L328.85 7.27Q328.01 8.37 328.01 10.07L328.01 10.07L328.01 10.07Q328.01 10.69 328.12 11.25L328.12 11.25L328.12 11.25Q328.23 11.81 328.48 12.34L328.48 12.34L328.48 12.34Q328.73 12.87 329.11 13.25L329.11 13.25L329.11 13.25Q329.49 13.63 330.08 13.86L330.08 13.86L330.08 13.86Q330.67 14.09 331.40 14.09L331.40 14.09L331.40 14.09Q332.46 14.09 333.18 13.59L333.18 13.59L333.19 11.03L331.54 10.86L331.58 10.60L334.87 10.60L334.82 10.86L333.90 11.01L333.90 13.86L333.90 13.86Q333.25 14.25 332.51 14.39L332.51 14.39L332.51 14.39Q331.78 14.53 330.69 14.53L330.69 14.53L330.69 14.53Q329.98 14.53 329.35 14.23L329.35 14.23L329.35 14.23Q328.72 13.93 328.25 13.39L328.25 13.39L328.25 13.39Q327.78 12.85 327.51 12.04L327.51 12.04L327.51 12.04Q327.23 11.23 327.23 10.27ZM343.76 6.36L342.54 6.18L342.58 5.89L348.78 5.89L348.56 8.07L348.25 8.03L348.12 6.24L344.47 6.24L344.47 9.89L346.76 9.89L347.01 8.94L347.38 8.89L347.16 11.55L346.81 11.61L346.70 10.26L344.47 10.26L344.47 14.03L348.31 14.03L348.82 12.19L349.10 12.26L348.89 14.40L342.56 14.40L342.60 14.11L343.76 13.90L343.76 6.36ZM356.87 8.09L356.80 5.89L363.86 5.89L363.62 8.16L363.28 8.12L363.17 6.24L360.63 6.24L360.63 13.90L361.84 14.08L361.76 14.40L358.67 14.40L358.70 14.11L359.90 13.90L359.90 6.24L357.46 6.24L357.23 8.15L356.87 8.09ZM371.70 5.83L371.70 5.83L371.70 5.83Q371.70 5.70 371.83 5.63L371.83 5.63L371.83 5.63Q371.97 5.55 372.17 5.55L372.17 5.55L372.17 5.55Q372.53 5.55 372.53 5.83L372.53 5.83L372.53 5.83Q372.53 7.93 372.20 11.94L372.20 11.94L371.90 11.87L371.90 11.87Q371.70 7.66 371.70 5.83ZM371.66 13.95L371.66 13.95L371.66 13.95Q371.66 13.67 371.77 13.49L371.77 13.49L371.77 13.49Q371.88 13.31 372.05 13.31L372.05 13.31L372.05 13.31Q372.23 13.31 372.34 13.49L372.34 13.49L372.34 13.49Q372.46 13.67 372.46 13.95L372.46 13.95L372.46 13.95Q372.46 14.62 372.05 14.62L372.05 14.62L372.05 14.62Q371.66 14.62 371.66 13.95Z"></path></g></svg>