<svg data-v-423bf9ae="" xmlns="http://www.w3.org/2000/svg" viewBox="0 0 472.2395348155299 60" class="font"><!----><!----><!----><g data-v-423bf9ae="" id="0ac424b2-bd28-44df-a4c8-8cc9bd60fea9" fill="white" transform="matrix(4.434590200540881,0,0,4.434590200540881,-3.5920244310285057,-12.993349822044195)"><path d="M5.67 11.89L2.59 3.63L1.34 3.63L0.81 13.43L2.03 13.43L2.31 7.84C2.32 7.52 2.34 7.14 2.34 6.78C2.34 6.41 2.32 6.05 2.32 5.74C2.52 6.38 2.83 7.25 3.01 7.73L5.11 13.43L6.22 13.43L8.33 7.74C8.48 7.32 8.82 6.38 9.03 5.74C9.02 6.10 9.00 6.58 9.00 7.03C9.00 7.32 9.02 7.60 9.03 7.84L9.31 13.43L10.51 13.43L10.00 3.63L8.74 3.63ZM14.94 6.61C12.99 6.61 11.83 7.74 11.83 9.95C11.83 12.33 13.24 13.57 15.48 13.57C16.24 13.57 17.07 13.44 17.70 13.19L17.70 12.15C16.91 12.40 16.04 12.52 15.46 12.52C14.04 12.52 13.22 11.84 13.06 10.40L17.81 10.40L17.81 9.83C17.81 7.71 16.77 6.61 14.94 6.61ZM14.92 7.56C16.02 7.56 16.56 8.40 16.56 9.53L13.05 9.53C13.16 8.18 13.89 7.56 14.92 7.56ZM20.22 8.33C20.22 7.83 20.57 7.60 21.42 7.60C21.92 7.60 22.67 7.69 23.02 7.84L23.02 6.85C22.71 6.72 22.05 6.61 21.35 6.61C19.66 6.61 18.98 7.24 18.98 8.27C18.98 9.31 19.59 9.76 20.82 10.46C21.84 11.06 22.08 11.37 22.08 11.76C22.08 12.36 21.46 12.59 20.68 12.59C20.10 12.59 19.54 12.50 18.90 12.29L18.90 13.29C19.36 13.45 20.13 13.57 20.86 13.57C22.09 13.57 23.31 13.20 23.31 11.75C23.31 10.60 22.64 10.18 21.66 9.60C20.58 8.96 20.22 8.75 20.22 8.33ZM25.63 8.33C25.63 7.83 25.98 7.60 26.84 7.60C27.34 7.60 28.08 7.69 28.43 7.84L28.43 6.85C28.13 6.72 27.47 6.61 26.77 6.61C25.07 6.61 24.40 7.24 24.40 8.27C24.40 9.31 25.00 9.76 26.24 10.46C27.26 11.06 27.50 11.37 27.50 11.76C27.50 12.36 26.88 12.59 26.10 12.59C25.52 12.59 24.96 12.50 24.32 12.29L24.32 13.29C24.78 13.45 25.55 13.57 26.28 13.57C27.51 13.57 28.73 13.20 28.73 11.75C28.73 10.60 28.06 10.18 27.08 9.60C26.00 8.96 25.63 8.75 25.63 8.33ZM36.04 13.43C35.91 12.78 35.88 11.63 35.88 10.57L35.88 7.22L35.87 7.22L35.87 7.03C35.15 6.75 34.05 6.61 33.26 6.61C31.00 6.61 29.78 7.94 29.78 10.42C29.78 12.70 30.86 13.57 32.31 13.57C33.39 13.57 34.17 13.08 34.65 11.89C34.68 12.38 34.73 12.87 34.83 13.43ZM32.58 12.52C31.65 12.52 31.07 11.93 31.07 10.35C31.07 8.50 31.86 7.59 33.31 7.59C33.70 7.59 34.15 7.64 34.61 7.73L34.61 7.88C34.55 11.83 33.53 12.52 32.58 12.52ZM39.63 15.46C38.89 15.46 38.12 15.37 37.56 15.20L37.56 16.20C38.11 16.37 38.95 16.46 39.68 16.46C42.10 16.46 43.47 15.41 43.47 12.64L43.47 7.03C42.77 6.75 41.65 6.61 40.88 6.61C38.60 6.61 37.38 7.94 37.38 10.42C37.38 12.70 38.47 13.57 39.91 13.57C40.96 13.57 41.73 13.10 42.21 12.00L42.21 12.63C42.21 14.80 41.20 15.46 39.63 15.46ZM40.18 12.52C39.27 12.52 38.67 11.93 38.67 10.35C38.67 8.50 39.48 7.59 40.92 7.59C41.31 7.59 41.75 7.64 42.21 7.73L42.21 7.88C42.15 11.83 41.13 12.52 40.18 12.52ZM48.05 6.61C46.10 6.61 44.94 7.74 44.94 9.95C44.94 12.33 46.35 13.57 48.59 13.57C49.35 13.57 50.18 13.44 50.81 13.19L50.81 12.15C50.02 12.40 49.15 12.52 48.57 12.52C47.15 12.52 46.33 11.84 46.17 10.40L50.92 10.40L50.92 9.83C50.92 7.71 49.88 6.61 48.05 6.61ZM48.03 7.56C49.13 7.56 49.67 8.40 49.67 9.53L46.16 9.53C46.27 8.18 47.00 7.56 48.03 7.56ZM57.61 3.63L54.50 13.43L55.83 13.43L56.60 10.86L60.27 10.86L61.08 13.43L62.41 13.43L59.16 3.63ZM58.06 6.09C58.18 5.66 58.28 5.19 58.39 4.77C58.51 5.19 58.60 5.64 58.74 6.08L59.93 9.81L56.92 9.81ZM64.75 13.43L64.75 12.82C64.78 10.15 65.51 7.66 67.09 7.66C67.76 7.66 68.05 8.13 68.05 9.31L68.05 13.43L69.30 13.43L69.30 8.90C69.30 7.46 68.80 6.61 67.49 6.61C66.11 6.61 65.23 7.41 64.72 8.85L64.69 6.75L63.48 6.75L63.48 13.43ZM77.03 13.43C76.90 12.78 76.87 11.63 76.87 10.57L76.87 7.22L76.86 7.22L76.86 7.03C76.15 6.75 75.04 6.61 74.26 6.61C71.99 6.61 70.77 7.94 70.77 10.42C70.77 12.70 71.85 13.57 73.30 13.57C74.38 13.57 75.17 13.08 75.64 11.89C75.67 12.38 75.73 12.87 75.82 13.43ZM73.57 12.52C72.65 12.52 72.06 11.93 72.06 10.35C72.06 8.50 72.86 7.59 74.30 7.59C74.69 7.59 75.14 7.64 75.60 7.73L75.60 7.88C75.54 11.83 74.52 12.52 73.57 12.52ZM78.69 2.93L78.69 11.56C78.69 12.85 79.17 13.47 80.51 13.47C80.67 13.47 80.81 13.45 80.96 13.44L80.96 12.43C80.82 12.46 80.72 12.46 80.60 12.46C80.12 12.46 79.97 12.14 79.97 11.54L79.97 2.93ZM84.08 15.46C83.34 15.46 82.57 15.37 82.01 15.20L82.01 16.20C82.56 16.37 83.40 16.46 84.13 16.46C86.55 16.46 87.93 15.41 87.93 12.64L87.93 7.42L87.92 7.42L87.92 6.75L86.63 6.75L86.63 8.57C86.53 10.35 86.00 12.50 84.46 12.50C83.72 12.50 83.36 12.08 83.36 11.02L83.36 6.75L82.10 6.75L82.10 11.27C82.10 12.71 82.66 13.55 84.11 13.55C85.40 13.55 86.20 12.94 86.66 11.84L86.66 12.63C86.66 14.80 85.65 15.46 84.08 15.46ZM94.54 6.75L89.40 6.75L89.40 7.73L93.04 7.73L89.25 12.52L89.25 13.43L94.85 13.43L94.85 12.45L90.66 12.45L94.54 7.66ZM98.69 6.61C96.74 6.61 95.58 7.74 95.58 9.95C95.58 12.33 96.99 13.57 99.23 13.57C99.99 13.57 100.81 13.44 101.44 13.19L101.44 12.15C100.66 12.40 99.79 12.52 99.20 12.52C97.79 12.52 96.96 11.84 96.81 10.40L101.56 10.40L101.56 9.83C101.56 7.71 100.52 6.61 98.69 6.61ZM98.67 7.56C99.76 7.56 100.31 8.40 100.31 9.53L96.80 9.53C96.91 8.18 97.64 7.56 98.67 7.56ZM104.31 13.43L104.31 13.02C104.31 9.24 105.46 7.77 106.75 7.77C106.96 7.77 107.14 7.78 107.30 7.83L107.30 6.66C107.11 6.62 106.96 6.61 106.71 6.61C105.49 6.61 104.72 7.62 104.29 9.09L104.26 6.75L103.04 6.75L103.04 13.43Z"></path></g><!----><!----></svg>